<svg xmlns="http://www.w3.org/2000/svg" xmlns:xlink="http://www.w3.org/1999/xlink" width="40" height="32" viewBox="0 0 40 32">
  <defs>
    <clipPath id="clip-path">
      <rect id="Rectangle_7" data-name="Rectangle 7" width="40" height="32" fill="#d9d9d9"/>
    </clipPath>
  </defs>
  <g id="github-footer" clip-path="url(#clip-path)">
    <path id="github-brands" d="M13.379,25.97c0,.13-.185.234-.419.234-.266.02-.452-.085-.452-.234,0-.13.185-.234.419-.234C13.169,25.716,13.379,25.82,13.379,25.97Zm-2.508-.293c-.056.13.1.28.347.319.21.065.452,0,.5-.13s-.1-.28-.347-.338C11.161,25.482,10.927,25.547,10.871,25.677Zm3.565-.111c-.234.046-.4.169-.371.319.024.13.234.215.476.169s.4-.169.371-.3S14.669,25.547,14.435,25.567ZM19.742.645C8.556.645,0,7.493,0,16.514,0,23.726,5.629,29.9,13.669,32.07c1.032.15,1.4-.364,1.4-.787,0-.4-.024-2.627-.024-3.993,0,0-5.645.976-6.831-1.938a5.336,5.336,0,0,0-2.242-2.38s-1.847-1.021.129-1A4.524,4.524,0,0,1,9.21,23.648c1.766,2.51,4.726,1.788,5.879,1.359a3.407,3.407,0,0,1,1.29-2.192c-4.508-.4-9.056-.93-9.056-7.186a4.5,4.5,0,0,1,1.9-3.831,5.047,5.047,0,0,1,.21-4.416C11.121,6.96,15,9.139,15,9.139a23.476,23.476,0,0,1,10.129,0s3.879-2.185,5.565-1.756A5.045,5.045,0,0,1,30.9,11.8c1.29,1.151,2.081,2.049,2.081,3.831,0,6.276-4.75,6.777-9.258,7.186A3.492,3.492,0,0,1,25.1,25.833c0,2.192-.024,4.9-.024,5.437,0,.423.371.937,1.4.787C34.532,29.9,40,23.726,40,16.514,40,7.493,30.927.645,19.742.645ZM7.839,23.076c-.1.065-.081.215.056.338a.361.361,0,0,0,.419.065c.1-.065.081-.215-.056-.338A.361.361,0,0,0,7.839,23.076Zm-.871-.527c-.056.085.024.189.185.254a.277.277,0,0,0,.347-.046c.056-.085-.024-.189-.185-.254A.359.359,0,0,0,6.968,22.549Zm2.613,2.315c-.129.085-.081.28.1.4a.422.422,0,0,0,.524.065c.1-.085.056-.28-.1-.4A.422.422,0,0,0,9.581,24.864Zm-.919-.956c-.129.065-.129.234,0,.384a.415.415,0,0,0,.452.15c.129-.085.129-.254,0-.4a.362.362,0,0,0-.452-.13Z" transform="translate(-0.64 -0.5)" fill="#d9d9d9"/>
  </g>
</svg>
