<svg xmlns="http://www.w3.org/2000/svg" width="40" height="32" viewBox="0 0 40 32">
  <path id="linkedin" d="M37.143,32H2.848A2.624,2.624,0,0,0,0,34.307V61.693A2.624,2.624,0,0,0,2.848,64H37.143A2.633,2.633,0,0,0,40,61.693V34.307A2.633,2.633,0,0,0,37.143,32ZM12.089,59.429H6.161V44.157H12.1V59.429ZM9.125,42.071c-1.9,0-3.438-1.236-3.438-2.75s1.536-2.75,3.438-2.75,3.438,1.236,3.438,2.75S11.027,42.071,9.125,42.071ZM34.313,59.429H28.384V52c0-1.771-.045-4.05-3.08-4.05-3.089,0-3.562,1.929-3.562,3.921v7.557H15.813V44.157H21.5v2.086h.08A6.655,6.655,0,0,1,27.2,43.779c6,0,7.116,3.164,7.116,7.279Z" transform="translate(0 -32)" fill="#d9d9d9"/>
</svg>
