<svg xmlns="http://www.w3.org/2000/svg" xmlns:xlink="http://www.w3.org/1999/xlink" width="40" height="32" viewBox="0 0 40 32">
  <defs>
    <clipPath id="clip-path">
      <rect id="Rectangle_6" data-name="Rectangle 6" width="40" height="32" fill="none" stroke="#d9d9d9" stroke-width="2"/>
    </clipPath>
  </defs>
  <g id="twitter" clip-path="url(#clip-path)">
    <path id="twitter-brands" d="M35.888,10.286c.025.287.025.573.025.86,0,8.74-8.249,18.81-23.325,18.81A27.355,27.355,0,0,1,0,26.988c.66.061,1.294.082,1.98.082a19.062,19.062,0,0,0,10.178-2.825c-3.6-.061-6.624-1.965-7.665-4.585a12.768,12.768,0,0,0,1.548.1A10.644,10.644,0,0,0,8.2,19.537c-3.756-.614-6.574-3.275-6.574-6.488v-.082a9.8,9.8,0,0,0,3.706.839A6.393,6.393,0,0,1,1.675,8.3,5.628,5.628,0,0,1,2.792,4.964a25.527,25.527,0,0,0,16.9,6.918,6.083,6.083,0,0,1-.2-1.515c0-3.643,3.655-6.611,8.2-6.611a9.2,9.2,0,0,1,5.99,2.088,18.656,18.656,0,0,0,5.2-1.6,7.072,7.072,0,0,1-3.6,3.643A19.626,19.626,0,0,0,40,6.868a16.212,16.212,0,0,1-4.112,3.418Z" transform="translate(-0.07 -0.984)" fill="none" stroke="#d9d9d9" stroke-width="2"/>
  </g>
</svg>
